<svg width="537" height="350" viewBox="0 0 537 350" fill="none" xmlns="http://www.w3.org/2000/svg">
<path d="M30.231 152.062L15.8575 150.592L12.6865 163.893L8.17124 163.431L15.3513 133.312L36.569 135.485L35.7902 138.753L19.0882 137.043L16.6327 147.344L31.0049 148.816L30.231 152.062ZM38.8444 166.569L34.4931 166.124L39.8279 143.742L44.1814 144.188L38.8444 166.569ZM40.8911 137.769C41.0394 137.149 41.3756 136.647 41.9011 136.263C42.4419 135.88 43.1358 135.733 43.9824 135.819C44.829 135.906 45.4224 136.185 45.7588 136.658C46.0969 137.13 46.1899 137.677 46.0434 138.297C45.8951 138.917 45.5516 139.413 45.0139 139.781C44.4766 140.15 43.7844 140.29 42.9378 140.204C42.0912 140.117 41.4961 139.844 41.1566 139.387C40.832 138.929 40.7428 138.39 40.8911 137.769ZM55.2831 145.325L54.7546 148.152C57.2106 146.2 60.0078 145.384 63.1446 145.705C68.5238 146.256 70.5999 149.202 69.3745 154.543L65.8494 169.334L61.4977 168.887L65.0284 154.078C65.3983 152.462 65.2576 151.226 64.6119 150.368C63.9798 149.512 62.7944 148.996 61.0535 148.818C59.6423 148.673 58.3245 148.877 57.1003 149.431C55.8756 149.983 54.8381 150.767 53.9857 151.781L50.1825 167.73L45.8313 167.285L51.1661 144.903L55.2831 145.325ZM74.0651 158.52C74.8846 155.085 76.4672 152.422 78.8145 150.529C81.1637 148.623 83.8376 147.823 86.8313 148.129C89.8118 148.434 91.9577 149.572 93.2709 151.543L96.0536 139.877L100.405 140.322L92.8309 172.094L88.8305 171.685L89.1914 169.264C87.0043 170.962 84.3575 171.652 81.2531 171.334C78.305 171.031 76.1508 169.724 74.7898 167.408C73.4462 165.095 73.1807 162.229 73.9971 158.809L74.0651 158.52ZM78.3146 159.4C77.7096 161.937 77.8324 163.983 78.6817 165.539C79.531 167.096 81.0063 167.981 83.1095 168.196C85.869 168.479 88.1434 167.596 89.9331 165.547L92.385 155.266C91.5852 153.023 89.8372 151.763 87.1408 151.487C85.0073 151.27 83.1724 151.823 81.6347 153.149C80.0988 154.475 78.9907 156.558 78.3146 159.4ZM121.217 169.257L131.145 153.088L135.803 153.564L119.411 178.353C116.939 181.915 113.979 183.518 110.53 183.166L109.721 183.018L108.161 182.584L108.901 179.482L110.057 179.685C111.531 179.835 112.738 179.691 113.679 179.25C114.636 178.81 115.545 177.923 116.411 176.584L117.918 174.407L114.115 151.345L118.866 151.831L121.217 169.257ZM135.56 164.792C136.083 162.598 137.04 160.676 138.43 159.024C139.835 157.374 141.52 156.163 143.488 155.39C145.471 154.617 147.585 154.347 149.828 154.576C153.292 154.931 155.841 156.271 157.47 158.6C159.115 160.93 159.521 163.847 158.686 167.348L158.621 167.618C158.103 169.796 157.158 171.705 155.787 173.346C154.434 174.973 152.758 176.179 150.756 176.963C148.768 177.748 146.631 178.024 144.341 177.789C140.891 177.436 138.345 176.096 136.698 173.765C135.069 171.437 134.667 168.536 135.495 165.06L135.56 164.792ZM139.827 165.693C139.236 168.177 139.411 170.235 140.354 171.873C141.313 173.51 142.891 174.442 145.086 174.667C147.297 174.893 149.234 174.314 150.898 172.93C152.565 171.532 153.725 169.462 154.379 166.717C154.963 164.263 154.771 162.209 153.8 160.555C152.847 158.889 151.273 157.945 149.078 157.72C146.929 157.5 145.017 158.074 143.341 159.443C141.666 160.811 140.495 162.895 139.827 165.693ZM177.712 178.513C175.6 180.091 172.906 180.713 169.63 180.378C166.916 180.1 165.011 179.198 163.911 177.673C162.833 176.136 162.608 174.009 163.24 171.289L166.711 156.728L171.064 157.172L167.617 171.632C166.808 175.024 167.972 176.881 171.109 177.202C174.434 177.542 176.905 176.679 178.521 174.613L182.402 158.333L186.754 158.779L181.417 181.16L177.278 180.737L177.712 178.513ZM204.871 164.15C204.235 163.986 203.534 163.865 202.766 163.786C199.911 163.494 197.72 164.364 196.191 166.399L192.403 182.285L188.051 181.839L193.388 159.458L197.621 159.891L197.075 162.483C198.98 160.629 201.24 159.837 203.86 160.105C204.706 160.191 205.327 160.354 205.72 160.592L204.871 164.15ZM220.612 179.09C220.859 178.055 220.602 177.21 219.842 176.553C219.103 175.883 217.676 175.229 215.564 174.589C213.466 173.95 211.837 173.275 210.673 172.563C209.526 171.852 208.734 171.064 208.296 170.201C207.876 169.338 207.796 168.356 208.06 167.252C208.496 165.418 209.745 163.957 211.804 162.867C213.878 161.781 216.287 161.377 219.033 161.658C221.918 161.953 224.099 162.847 225.574 164.34C227.064 165.835 227.567 167.603 227.08 169.644L222.705 169.195C222.954 168.148 222.66 167.193 221.822 166.329C220.999 165.468 219.82 164.959 218.283 164.802C216.698 164.64 215.388 164.817 214.348 165.331C213.311 165.846 212.674 166.594 212.44 167.573C212.221 168.497 212.469 169.237 213.19 169.791C213.909 170.344 215.3 170.946 217.362 171.594C219.439 172.245 221.083 172.937 222.289 173.667C223.498 174.398 224.323 175.217 224.764 176.125C225.226 177.018 225.314 178.066 225.028 179.266C224.551 181.265 223.258 182.779 221.149 183.806C219.045 184.82 216.541 185.178 213.639 184.881C211.601 184.674 209.874 184.172 208.456 183.376C207.04 182.581 206.02 181.572 205.395 180.351C204.79 179.115 204.645 177.837 204.96 176.514L209.311 176.958C209.085 178.25 209.423 179.329 210.323 180.198C211.242 181.055 212.597 181.575 214.384 181.759C216.031 181.926 217.417 181.772 218.543 181.294C219.689 180.804 220.378 180.069 220.612 179.09ZM239.681 187.546C236.23 187.194 233.66 185.913 231.969 183.706C230.282 181.485 229.836 178.705 230.632 175.368L230.799 174.665C231.329 172.445 232.278 170.514 233.649 168.875C235.039 167.223 236.713 165.997 238.672 165.193C240.649 164.379 242.649 164.074 244.672 164.281C247.98 164.62 250.324 165.841 251.702 167.946C253.08 170.051 253.343 172.89 252.491 176.462L252.113 178.054L234.869 176.289C234.406 178.503 234.71 180.363 235.78 181.87C236.869 183.367 238.496 184.225 240.66 184.446C242.197 184.603 243.564 184.462 244.761 184.019C245.96 183.576 247.068 182.94 248.084 182.113L250.309 184.205C247.489 186.869 243.947 187.983 239.681 187.546ZM243.922 167.425C242.166 167.246 240.557 167.66 239.097 168.67C237.637 169.664 236.526 171.161 235.76 173.16L248.509 174.464L248.579 174.174C248.917 172.217 248.68 170.654 247.866 169.482C247.056 168.299 245.741 167.612 243.922 167.425ZM259.491 189.15L255.139 188.704L262.713 156.932L267.065 157.377L259.491 189.15ZM268.619 190.083L273.249 170.661L269.227 170.248L269.931 167.291L273.954 167.703L274.501 165.406C275.073 163.006 276.245 161.226 278.015 160.065C279.786 158.904 282.004 158.46 284.67 158.733C285.675 158.836 286.641 159.055 287.574 159.391L286.598 162.47C285.891 162.27 285.123 162.128 284.292 162.043C282.88 161.898 281.703 162.152 280.761 162.804C279.82 163.443 279.19 164.438 278.868 165.79L278.305 168.147L283.74 168.704L283.034 171.662L277.6 171.105L272.97 190.529L268.619 190.083ZM319.332 184.064C318.516 187.485 316.967 190.143 314.682 192.043C312.402 193.929 309.755 194.717 306.745 194.409C303.53 194.081 301.282 192.826 300.003 190.647L299.174 193.211L295.176 192.802L302.75 161.03L307.103 161.474L304.276 173.328C306.489 171.591 309.141 170.879 312.23 171.196C315.32 171.511 317.497 172.787 318.764 175.021C320.047 177.258 320.262 180.162 319.41 183.734L319.332 184.064ZM315.084 183.185C315.704 180.578 315.613 178.506 314.806 176.968C313.999 175.431 312.522 174.552 310.375 174.333C307.505 174.039 305.163 175 303.349 177.216L301.042 186.896C301.816 189.377 303.613 190.763 306.437 191.051C308.523 191.265 310.315 190.721 311.813 189.42C313.313 188.117 314.403 186.039 315.084 183.185ZM331.609 190.788L341.536 174.618L346.193 175.094L329.801 199.883C327.33 203.445 324.369 205.05 320.919 204.696L320.111 204.55L318.551 204.115L319.29 201.012L320.448 201.214C321.922 201.366 323.129 201.221 324.07 200.78C325.026 200.342 325.936 199.453 326.801 198.115L328.308 195.938L324.504 172.875L329.256 173.362L331.609 190.788ZM373.531 181.41C372.896 181.247 372.194 181.125 371.426 181.047C368.572 180.755 366.38 181.625 364.851 183.658L361.065 199.544L356.712 199.1L362.048 176.717L366.281 177.151L365.737 179.744C367.64 177.89 369.9 177.097 372.52 177.366C373.367 177.452 373.987 177.614 374.38 177.853L373.531 181.41ZM383.03 202.215C379.58 201.863 377.009 200.584 375.318 198.376C373.631 196.154 373.185 193.376 373.981 190.039L374.148 189.335C374.678 187.115 375.628 185.185 376.999 183.545C378.388 181.893 380.063 180.666 382.02 179.863C383.998 179.048 385.998 178.745 388.021 178.952C391.331 179.29 393.673 180.512 395.051 182.617C396.429 184.722 396.694 187.559 395.842 191.131L395.462 192.724L378.22 190.96C377.756 193.172 378.059 195.033 379.129 196.541C380.218 198.036 381.845 198.895 384.009 199.117C385.546 199.275 386.915 199.131 388.112 198.689C389.309 198.247 390.417 197.611 391.434 196.782L393.658 198.875C390.837 201.538 387.295 202.652 383.03 202.215ZM387.271 182.096C385.515 181.917 383.907 182.331 382.445 183.339C380.988 184.335 379.875 185.832 379.111 187.829L391.86 189.133L391.928 188.845C392.267 186.888 392.028 185.323 391.217 184.153C390.406 182.968 389.091 182.283 387.271 182.096ZM413.827 204.943C413.681 204.476 413.665 203.67 413.777 202.523C411.313 204.164 408.677 204.841 405.87 204.554C403.362 204.297 401.448 203.465 400.127 202.059C398.827 200.64 398.407 198.973 398.863 197.056C399.419 194.725 400.853 193.021 403.166 191.944C405.497 190.855 408.492 190.498 412.145 190.871L416.378 191.305L416.797 189.546C417.116 188.209 416.915 187.101 416.192 186.222C415.473 185.328 414.228 184.79 412.457 184.609C410.904 184.45 409.521 184.662 408.305 185.245C407.09 185.827 406.367 186.607 406.133 187.586L401.757 187.138C402.023 186.021 402.726 184.992 403.868 184.049C405.026 183.094 406.448 182.391 408.128 181.942C409.826 181.493 411.599 181.365 413.45 181.554C416.383 181.854 418.526 182.737 419.879 184.204C421.236 185.656 421.676 187.517 421.199 189.786L418.743 200.086C418.254 202.14 418.162 203.806 418.469 205.081L418.39 205.411L413.827 204.943ZM407.299 201.289C408.664 201.427 410.032 201.25 411.403 200.755C412.773 200.259 413.853 199.543 414.639 198.607L415.732 194.014L412.321 193.665C406.989 193.119 403.997 194.219 403.342 196.963C403.056 198.163 403.289 199.147 404.036 199.916C404.786 200.685 405.873 201.142 407.299 201.289ZM425.971 194.532C426.789 191.098 428.373 188.434 430.719 186.542C433.069 184.636 435.742 183.836 438.737 184.141C441.718 184.447 443.864 185.585 445.177 187.555L447.958 175.89L452.309 176.335L444.735 208.107L440.736 207.697L441.097 205.276C438.908 206.975 436.263 207.664 433.157 207.347C430.209 207.044 428.055 205.737 426.695 203.421C425.35 201.108 425.086 198.241 425.903 194.822L425.971 194.532ZM430.219 195.413C429.614 197.95 429.736 199.996 430.587 201.552C431.437 203.108 432.912 203.995 435.014 204.209C437.775 204.492 440.049 203.609 441.839 201.56L444.289 191.279C443.491 189.035 441.743 187.776 439.045 187.5C436.913 187.282 435.078 187.836 433.54 189.162C432.003 190.488 430.896 192.571 430.219 195.413ZM456.239 209.283L451.886 208.839L457.222 186.457L461.574 186.903L456.239 209.283ZM458.284 180.484C458.432 179.863 458.768 179.362 459.294 178.977C459.834 178.595 460.53 178.447 461.377 178.533C462.223 178.62 462.815 178.9 463.151 179.373C463.49 179.845 463.584 180.391 463.436 181.011C463.288 181.632 462.946 182.127 462.406 182.495C461.869 182.864 461.177 183.005 460.33 182.919C459.484 182.832 458.891 182.56 458.549 182.101C458.225 181.644 458.137 181.105 458.284 180.484ZM472.677 188.039L472.147 190.867C474.605 188.914 477.402 188.098 480.537 188.42C485.916 188.97 487.994 191.916 486.769 197.257L483.242 212.048L478.89 211.602L482.421 196.792C482.791 195.177 482.652 193.94 482.004 193.083C481.372 192.227 480.187 191.711 478.446 191.533C477.035 191.388 475.717 191.592 474.493 192.146C473.268 192.698 472.231 193.481 471.378 194.496L467.577 210.444L463.224 209.999L468.56 187.617L472.677 188.039ZM491.482 201.237C492.314 197.747 493.892 195.069 496.218 193.203C498.546 191.322 501.223 190.537 504.249 190.846C507.355 191.163 509.547 192.377 510.828 194.486L511.63 192.025L515.606 192.432L510.399 214.275C509.709 217.171 508.184 219.354 505.826 220.822C503.484 222.292 500.667 222.857 497.374 222.521C495.537 222.333 493.825 221.805 492.232 220.935C490.641 220.066 489.526 218.984 488.885 217.689L491.692 215.625C493.074 217.842 495.115 219.09 497.812 219.367C499.928 219.583 501.7 219.227 503.127 218.3C504.567 217.373 505.515 215.959 505.97 214.056L506.428 212.131C504.267 213.719 501.679 214.359 498.669 214.051C495.69 213.745 493.526 212.444 492.179 210.144C490.847 207.846 490.615 204.877 491.482 201.237ZM495.754 202.118C495.153 204.642 495.267 206.688 496.099 208.256C496.933 209.811 498.409 210.697 500.525 210.914C503.269 211.195 505.547 210.304 507.355 208.243L509.79 198.024C508.967 195.752 507.222 194.477 504.556 194.204C502.44 193.988 500.613 194.543 499.077 195.869C497.539 197.195 496.431 199.278 495.754 202.118ZM523.753 207.484L519.825 207.082L524.673 185.434L529.236 185.902L523.753 207.484ZM517.787 213.612C517.935 212.991 518.269 212.497 518.791 212.126C519.332 211.743 520.026 211.596 520.873 211.682C521.719 211.769 522.311 212.049 522.649 212.521C522.989 212.979 523.086 213.519 522.937 214.14C522.789 214.76 522.447 215.254 521.91 215.623C521.376 215.979 520.684 216.113 519.837 216.025C518.99 215.939 518.395 215.674 518.052 215.228C517.728 214.772 517.638 214.232 517.787 213.612Z" fill="#643939"/>
</svg>
